<?xml version="1.0" standalone="no"?>
<!DOCTYPE svg PUBLIC "-//W3C//DTD SVG 20010904//EN"
 "http://www.w3.org/TR/2001/REC-SVG-20010904/DTD/svg10.dtd">
<svg version="1.0" xmlns="http://www.w3.org/2000/svg"
 width="16.000000pt" height="16.000000pt" viewBox="0 0 16.000000 16.000000"
 preserveAspectRatio="xMidYMid meet">
<metadata>
Created by potrace 1.11, written by Peter Selinger 2001-2013
</metadata>
<g transform="translate(0.000000,16.000000) scale(0.002286,-0.002286)"
fill="#000000" stroke="none">
<path d="M2558 6775 c-2 -1 -57 -5 -123 -9 -66 -3 -129 -7 -140 -10 -11 -2
-42 -7 -70 -10 -117 -15 -323 -67 -444 -113 -482 -181 -837 -547 -975 -1006
-14 -45 -28 -98 -31 -117 -3 -19 -8 -42 -10 -50 -2 -8 -7 -42 -11 -75 -3 -33
-9 -63 -12 -66 -4 -3 -34 -13 -67 -23 -80 -24 -140 -56 -206 -107 -64 -51 -64
-51 -110 -109 -116 -144 -163 -348 -124 -535 45 -214 221 -410 428 -475 l77
-24 0 -38 c0 -51 25 -169 55 -256 90 -262 289 -503 561 -678 86 -55 153 -96
164 -99 3 -1 44 -20 91 -42 87 -41 287 -113 314 -113 7 0 17 -4 20 -10 5 -8
-186 -634 -395 -1295 -16 -49 -50 -157 -75 -240 -26 -82 -55 -175 -64 -205
-10 -30 -33 -102 -51 -160 l-32 -105 -68 -34 c-54 -27 -182 -114 -263 -181
-61 -50 -82 -62 -129 -76 -152 -46 -187 -59 -231 -82 -79 -42 -105 -94 -85
-171 l10 -41 457 0 456 0 50 24 c102 48 88 26 353 536 35 69 72 139 82 155 17
29 53 97 173 326 31 59 67 126 80 150 13 24 57 107 97 184 40 77 85 163 100
190 15 28 56 104 90 170 35 66 75 143 90 170 15 28 53 100 85 160 62 117 123
229 141 259 10 17 15 16 95 -8 46 -14 101 -28 122 -32 45 -8 49 -24 5 -24 -44
0 -146 -37 -188 -68 -93 -68 -190 -211 -230 -337 -7 -22 -15 -44 -19 -50 -3
-5 -6 -14 -8 -20 -1 -5 -9 -35 -17 -65 -22 -77 -53 -259 -63 -366 -18 -195 -9
-576 18 -797 6 -56 8 -102 3 -106 -13 -12 -65 -29 -194 -62 -272 -72 -432
-134 -494 -193 -46 -43 -64 -103 -46 -156 l13 -40 76 0 c62 0 762 0 1139 0
l93 0 24 52 c29 63 33 143 9 209 -8 24 -17 62 -20 84 -11 88 -10 329 3 422 13
97 46 228 61 237 4 2 7 -73 6 -168 -1 -145 2 -187 22 -275 51 -227 162 -376
345 -465 92 -44 206 -79 304 -92 96 -13 457 -12 570 2 273 34 494 114 642 234
34 27 68 50 76 50 8 0 34 -7 57 -15 24 -8 57 -18 74 -20 17 -3 55 -10 85 -15
81 -15 222 -12 308 6 123 25 287 115 407 224 135 122 286 366 386 620 96 247
195 639 244 965 5 32 15 104 21 145 2 14 7 57 10 95 3 39 8 93 10 120 17 182
22 511 10 655 -3 41 -7 100 -10 130 -2 30 -6 73 -10 95 -13 92 -28 181 -32
200 -2 11 -6 31 -8 45 -8 40 -24 97 -65 226 -142 447 -410 715 -784 781 -23 4
-99 7 -171 7 -294 0 -538 -106 -706 -307 -90 -108 -169 -275 -186 -399 -14
-93 -8 -248 11 -322 74 -283 302 -461 577 -451 184 7 343 98 457 261 75 108
108 275 83 419 -17 95 -47 137 -126 175 -140 68 -301 -57 -281 -218 9 -78 -3
-128 -43 -174 -33 -37 -43 -41 -91 -45 -46 -4 -61 -1 -89 19 -47 32 -68 64
-84 126 -26 104 7 236 82 332 46 58 64 73 131 109 154 82 384 85 530 5 214
-116 366 -477 408 -964 13 -159 5 -684 -12 -765 -2 -11 -7 -49 -10 -85 -8 -74
-15 -132 -22 -175 -55 -339 -135 -642 -230 -875 -177 -436 -385 -616 -657
-566 -68 12 -66 9 -46 84 36 134 47 264 43 527 -2 138 -6 265 -8 284 -6 46
-16 118 -22 144 -2 12 -6 39 -9 62 -9 60 -53 241 -77 315 -98 307 -251 581
-448 803 -80 90 -223 228 -295 284 -67 52 -177 130 -245 173 -47 29 -86 54
-88 55 -2 2 8 25 21 52 48 96 93 269 96 370 1 16 9 23 34 28 47 9 136 45 182
73 199 122 317 336 310 563 -3 111 -11 150 -47 237 -76 182 -242 328 -432 377
-32 8 -60 16 -61 17 -1 2 -7 30 -13 63 -21 117 -44 193 -84 289 -75 176 -189
329 -353 471 -65 56 -215 150 -333 207 l-124 61 61 27 c33 14 63 29 66 32 5 5
-110 43 -275 92 -77 22 -278 65 -323 68 -20 1 -37 5 -37 9 0 8 65 52 115 77
l40 20 -70 7 c-39 4 -79 9 -90 12 -11 2 -90 6 -175 9 -85 3 -163 7 -172 8 -9
2 -18 3 -20 1z"/>
</g>
</svg>
